# xmcd
#
# Track frame offsets:
#	150
#	17955
#	29574
#	58016
#	74240
#	89157
#	111550
#	134860
#	148128
#	163975
#	176263
#	187546
#	202391
#	226152
#	241725
#	258396
#	278660
#	292413
#	309610
#
# Disc length: 4347 seconds
# Revision: 8
# Processed by: cddbd v1.5.2PL0 Copyright (c) Steve Scherf et al.
# Submitted via: dBpowerAMP V12.0
#
DISCID=3a10f913
DTITLE=Various Artist - Forever Man [CD3]
DYEAR=2015
DGENRE=Blues
TTITLE0=Eric Clapton - Before You Accuse Me
TTITLE1=Eric Clapton - Last Fair Deal Gone Down
TTITLE2=Eric Clapton with B.B. King - Hold On I'm Coming
TTITLE3=Eric Clapton - Terraplane Blues
TTITLE4=Eric Clapton - It Hurts Me Too
TTITLE5=Eric Clapton - Little Queen Of Spades
TTITLE6=Eric Clapton - Third Degree
TTITLE7=Eric Clapton - Motherless Child
TTITLE8=Eric Clapton with J.J. Cale - Sportin' Life Blues
TTITLE9=Eric Clapton - Ramblin' On My Mind
TTITLE10=Eric Clapton - Stop Breakin' Down Blues
TTITLE11=Eric Clapton - Everybody Oughta Make A Change
TTITLE12=Eric Clapton - Sweet Home Chicago
TTITLE13=Eric Clapton - If I Had Possession Over Judgement Day
TTITLE14=Eric Clapton - Hard Time Blues
TTITLE15=Eric Clapton - Got You On My Mind
TTITLE16=Eric Clapton - I'm Tore Down
TTITLE17=Eric Clapton - Milkcow's Calf Blues
TTITLE18=Eric Clapton with B.B. King - Key To The Highway
EXTD=
EXTT0=
EXTT1=
EXTT2=
EXTT3=
EXTT4=
EXTT5=
EXTT6=
EXTT7=
EXTT8=
EXTT9=
EXTT10=
EXTT11=
EXTT12=
EXTT13=
EXTT14=
EXTT15=
EXTT16=
EXTT17=
EXTT18=
PLAYORDER=
